<?xml version="1.0" encoding="UTF-8" standalone="no"?>
<!-- Created with Inkscape (http://www.inkscape.org/) -->

<svg
   xmlns:dc="http://purl.org/dc/elements/1.1/"
   xmlns:cc="http://creativecommons.org/ns#"
   xmlns:rdf="http://www.w3.org/1999/02/22-rdf-syntax-ns#"
   xmlns:svg="http://www.w3.org/2000/svg"
   xmlns="http://www.w3.org/2000/svg"
   xmlns:sodipodi="http://sodipodi.sourceforge.net/DTD/sodipodi-0.dtd"
   xmlns:inkscape="http://www.inkscape.org/namespaces/inkscape"
   width="210mm"
   height="297mm"
   viewBox="0 0 210 297"
   version="1.1"
   id="svg8"
   inkscape:version="0.92.1 r15371"
   sodipodi:docname="arrow_logo.svg">
  <defs
     id="defs2" />
  <sodipodi:namedview
     id="base"
     pagecolor="#ffffff"
     bordercolor="#666666"
     borderopacity="1.0"
     inkscape:pageopacity="0.0"
     inkscape:pageshadow="2"
     inkscape:zoom="0.35"
     inkscape:cx="-64.285714"
     inkscape:cy="528.81442"
     inkscape:document-units="mm"
     inkscape:current-layer="layer1"
     showgrid="false"
     inkscape:window-width="1920"
     inkscape:window-height="1017"
     inkscape:window-x="1912"
     inkscape:window-y="-8"
     inkscape:window-maximized="1" />
  <metadata
     id="metadata5">
    <rdf:RDF>
      <cc:Work
         rdf:about="">
        <dc:format>image/svg+xml</dc:format>
        <dc:type
           rdf:resource="http://purl.org/dc/dcmitype/StillImage" />
        <dc:title></dc:title>
      </cc:Work>
    </rdf:RDF>
  </metadata>
  <g
     inkscape:label="Layer 1"
     inkscape:groupmode="layer"
     id="layer1">
    <g
       id="g4507"
       transform="matrix(2.71875,0,0,2.5513394,-204.76389,-214.25472)">
      <path
         style="fill:#fbfbfb;stroke-width:0.35277775"
         d="m 81.794052,145.80952 v -33.86666 h 33.866668 33.86666 v 33.86666 33.86667 H 115.66072 81.794052 Z m 49.542588,27.78125 c 4.32367,-4.36387 6.71817,-6.30176 11.05281,-8.94511 1.80896,-1.10314 2.40139,-1.66413 2.48428,-2.35244 0.0947,-0.78639 -0.194,-1.07321 -2.22166,-2.20714 -3.38233,-1.89151 -7.96345,-5.58024 -11.99168,-9.65574 -3.22391,-3.26175 -3.6334,-3.56248 -4.85069,-3.56248 -1.00608,0 -1.32954,0.14314 -1.32954,0.58836 0,0.75595 2.90277,6.15299 4.45247,8.27835 0.65558,0.89912 1.19198,1.81371 1.19198,2.03242 0,0.29004 -3.89079,0.37273 -14.3757,0.30552 l -14.37569,-0.0922 -0.0909,-21.43125 -0.0909,-21.43125 h -7.758375 -7.758378 v 2.44862 c 0,1.5715 0.157962,2.55086 0.440973,2.73403 0.242534,0.15697 1.790347,0.52353 3.439583,0.81457 l 2.998611,0.52917 0.176389,22.40139 0.176388,22.40138 18.520829,0.17639 c 12.65908,0.12056 18.50033,0.29373 18.45606,0.54712 -0.0356,0.2039 -0.63295,1.21503 -1.32739,2.24695 -2.01176,2.98947 -4.49884,7.7431 -4.25639,8.13538 0.12218,0.19769 0.79209,0.35944 1.4887,0.35944 1.15162,0 1.65514,-0.39219 5.54828,-4.32153 z"
         id="path4511"
         inkscape:connector-curvature="0" />
      <path
         style="fill:#0a0a0a;stroke-width:0.35277775"
         d="m 124.29966,177.55286 c -0.24245,-0.39228 2.24463,-5.14591 4.25639,-8.13538 0.69444,-1.03192 1.29176,-2.04305 1.32739,-2.24695 0.0443,-0.25339 -5.79698,-0.42656 -18.45606,-0.54712 l -18.520829,-0.17639 -0.176388,-22.40138 -0.176389,-22.40139 -2.998611,-0.52917 c -1.649236,-0.29104 -3.197049,-0.6576 -3.439583,-0.81457 -0.283011,-0.18317 -0.440973,-1.16253 -0.440973,-2.73403 v -2.44862 h 7.758378 7.758375 l 0.0909,21.43125 0.0909,21.43125 14.37569,0.0922 c 10.48491,0.0672 14.3757,-0.0155 14.3757,-0.30552 0,-0.21871 -0.5364,-1.1333 -1.19198,-2.03242 -1.5497,-2.12536 -4.45247,-7.5224 -4.45247,-8.27835 0,-0.44522 0.32346,-0.58836 1.32954,-0.58836 1.21729,0 1.62678,0.30073 4.85069,3.56248 4.02823,4.0755 8.60935,7.76423 11.99168,9.65574 2.02766,1.13393 2.31636,1.42075 2.22166,2.20714 -0.0829,0.68831 -0.67532,1.2493 -2.48428,2.35244 -4.33464,2.64335 -6.72914,4.58124 -11.05281,8.94511 -3.89314,3.92934 -4.39666,4.32153 -5.54828,4.32153 -0.69661,0 -1.36652,-0.16175 -1.4887,-0.35944 z"
         id="path4509"
         inkscape:connector-curvature="0" />
    </g>
  </g>
</svg>
