<?xml version="1.0" encoding="UTF-8" standalone="no"?>
<svg
   xmlns:dc="http://purl.org/dc/elements/1.1/"
   xmlns:cc="http://creativecommons.org/ns#"
   xmlns:rdf="http://www.w3.org/1999/02/22-rdf-syntax-ns#"
   xmlns:svg="http://www.w3.org/2000/svg"
   xmlns="http://www.w3.org/2000/svg"
   id="svg4533"
   version="1.1"
   viewBox="0 0 64 64"
   height="64mm"
   width="64mm">
  <defs
     id="defs4527" />
  <metadata
     id="metadata4530">
    <rdf:RDF>
      <cc:Work
         rdf:about="">
        <dc:format>image/svg+xml</dc:format>
        <dc:type
           rdf:resource="http://purl.org/dc/dcmitype/StillImage" />
        <dc:title></dc:title>
      </cc:Work>
    </rdf:RDF>
  </metadata>
  <g
     id="layer1"
     transform="translate(0,-233)">
    <path
       style="fill:#f5f5f5;stroke-width:0.35277775;opacity:1"
       d="m 41.017691,296.03775 c -0.24245,-0.39228 2.24463,-5.14591 4.25639,-8.13538 0.69444,-1.03192 1.29176,-2.04305 1.32739,-2.24695 0.0443,-0.25339 -5.79697,-0.42656 -18.456047,-0.54712 L 9.6245926,284.93191 9.4482046,262.53053 9.2718153,240.12914 6.2732043,239.59997 c -1.649236,-0.29104 -3.197049,-0.6576 -3.439583,-0.81457 -0.283011,-0.18317 -0.440973,-1.16253 -0.440973,-2.73403 v -2.44862 h 7.7583787 7.758379 l 0.09093,21.43125 0.09093,21.43126 14.375685,0.0922 c 10.48491,0.0672 14.3757,-0.0155 14.3757,-0.30552 0,-0.2187 -0.53639,-1.1333 -1.19198,-2.03242 -1.5497,-2.12536 -4.45247,-7.5224 -4.45247,-8.27835 0,-0.44522 0.32346,-0.58836 1.32954,-0.58836 1.2173,0 1.62678,0.30073 4.85069,3.56248 4.02823,4.0755 8.60935,7.76423 11.99168,9.65574 2.02766,1.13393 2.31636,1.42075 2.22166,2.20714 -0.0829,0.68831 -0.67532,1.2493 -2.48428,2.35244 -4.33464,2.64335 -6.72914,4.58124 -11.05281,8.94511 -3.89313,3.92934 -4.39666,4.32153 -5.54827,4.32153 -0.69661,0 -1.36653,-0.16175 -1.48871,-0.35944 z"
       id="path5109" />
  </g>
</svg>
